<svg width="321" height="167" viewBox="0 0 321 167" fill="none" xmlns="http://www.w3.org/2000/svg">
<path d="M85.538 149.22C84.7527 149.22 84.1327 148.972 83.678 148.476C83.2233 148.021 82.996 147.401 82.996 146.616C82.996 145.252 83.6987 143.33 85.104 140.85C86.5093 138.411 88.3693 135.477 90.684 132.046C92.9573 128.615 95.4373 124.833 98.124 120.7C100.356 117.269 102.547 113.901 104.696 110.594C106.845 107.246 108.891 104.229 110.834 101.542C112.777 98.8553 114.554 96.7267 116.166 95.156C117.778 93.544 119.163 92.738 120.32 92.738C121.684 92.738 122.366 93.5647 122.366 95.218C122.366 96.5407 121.932 98.07 121.064 99.806C120.237 101.542 119.121 103.381 117.716 105.324C116.311 107.225 114.74 109.127 113.004 111.028C111.268 112.888 109.491 114.645 107.672 116.298C105.895 117.951 104.2 119.377 102.588 120.576C101.017 121.775 99.6533 122.643 98.496 123.18C98.2067 123.304 98.0413 123.242 98 122.994C98 122.705 98.1447 122.498 98.434 122.374C99.5087 121.878 100.79 121.051 102.278 119.894C103.807 118.695 105.419 117.29 107.114 115.678C108.85 114.025 110.545 112.268 112.198 110.408C113.893 108.548 115.422 106.688 116.786 104.828C118.15 102.927 119.245 101.129 120.072 99.434C120.899 97.698 121.312 96.1893 121.312 94.908C121.312 94.4533 121.209 94.0813 121.002 93.792C120.795 93.4613 120.527 93.296 120.196 93.296C119.535 93.296 118.584 94.0607 117.344 95.59C116.145 97.1193 114.699 99.2273 113.004 101.914C111.309 104.559 109.387 107.597 107.238 111.028C105.13 114.459 102.815 118.055 100.294 121.816C98.434 124.585 96.574 127.375 94.714 130.186C92.854 133.038 91.1593 135.683 89.63 138.122C88.0593 140.561 86.7987 142.607 85.848 144.26C84.8973 145.955 84.422 147.029 84.422 147.484C84.422 147.897 84.5667 148.187 84.856 148.352C85.104 148.517 85.3933 148.6 85.724 148.6C86.468 148.6 87.4187 147.98 88.576 146.74C89.7333 145.5 90.9113 143.805 92.11 141.656C93.2673 139.548 94.2593 137.151 95.086 134.464C95.8713 131.777 96.264 128.987 96.264 126.094C96.264 125.639 96.388 125.35 96.636 125.226C96.8427 125.102 96.946 125.205 96.946 125.536C96.946 128.595 96.5947 131.529 95.892 134.34C95.1893 137.192 94.28 139.734 93.164 141.966C92.0067 144.198 90.7667 145.955 89.444 147.236C88.08 148.559 86.778 149.22 85.538 149.22ZM102.216 126.652C100.769 126.652 99.5707 126.404 98.62 125.908C97.7107 125.371 96.9873 124.73 96.45 123.986C95.9127 123.242 95.5407 122.498 95.334 121.754C95.1273 120.969 95.024 120.307 95.024 119.77C95.024 119.233 95.1893 118.799 95.52 118.468C95.8093 118.096 96.1607 117.91 96.574 117.91C97.1113 117.91 97.4627 118.075 97.628 118.406C97.7933 118.737 97.876 119.026 97.876 119.274C97.876 119.853 97.6487 120.369 97.194 120.824C96.698 121.279 96.4087 121.547 96.326 121.63C96.326 121.63 96.4087 121.857 96.574 122.312C96.698 122.767 96.9667 123.283 97.38 123.862C97.7933 124.441 98.372 124.957 99.116 125.412C99.9013 125.867 100.935 126.094 102.216 126.094C103.539 126.094 104.717 125.867 105.75 125.412C106.825 124.916 107.734 124.358 108.478 123.738C109.263 123.077 109.883 122.457 110.338 121.878C110.834 121.299 111.165 120.927 111.33 120.762L111.888 121.134C111.764 121.299 111.454 121.671 110.958 122.25C110.462 122.829 109.801 123.469 108.974 124.172C108.147 124.833 107.155 125.412 105.998 125.908C104.882 126.404 103.621 126.652 102.216 126.652ZM131.1 92.428C131.554 92.5107 132.112 92.552 132.774 92.552C133.476 92.552 134.034 92.5107 134.448 92.428L112.872 122.498C112.21 123.49 111.57 124.42 110.95 125.288C110.33 126.156 109.834 126.921 109.462 127.582C109.048 128.202 108.842 128.698 108.842 129.07C108.842 129.359 108.966 129.566 109.214 129.69C109.42 129.814 109.73 129.876 110.144 129.876C111.094 129.876 112.148 129.545 113.306 128.884C114.463 128.181 115.6 127.313 116.716 126.28C117.873 125.247 118.927 124.234 119.878 123.242C120.87 122.25 121.655 121.444 122.234 120.824L122.668 121.196C122.13 121.775 121.386 122.581 120.436 123.614C119.485 124.647 118.39 125.701 117.15 126.776C115.951 127.809 114.69 128.698 113.368 129.442C112.086 130.186 110.826 130.558 109.586 130.558C108.924 130.558 108.366 130.372 107.912 130C107.416 129.628 107.168 129.091 107.168 128.388C107.168 127.933 107.333 127.355 107.664 126.652C107.994 125.949 108.408 125.226 108.904 124.482C109.358 123.697 109.813 122.994 110.268 122.374C110.681 121.713 111.012 121.217 111.26 120.886L131.1 92.428ZM132.884 114.19C134.951 114.19 135.984 115.182 135.984 117.166C135.984 118.695 135.633 120.266 134.93 121.878C134.228 123.449 133.277 124.895 132.078 126.218C130.88 127.499 129.578 128.553 128.172 129.38C126.767 130.165 125.341 130.558 123.894 130.558C122.778 130.558 121.848 130.289 121.104 129.752C120.319 129.173 119.926 128.243 119.926 126.962C119.926 125.763 120.278 124.441 120.98 122.994C121.683 121.506 122.634 120.101 123.832 118.778C125.072 117.455 126.457 116.36 127.986 115.492C129.557 114.624 131.19 114.19 132.884 114.19ZM133.566 115.058C132.864 115.058 132.037 115.368 131.086 115.988C130.136 116.608 129.164 117.414 128.172 118.406C127.18 119.398 126.25 120.473 125.382 121.63C124.556 122.746 123.874 123.841 123.336 124.916C122.84 125.991 122.592 126.9 122.592 127.644C122.592 128.471 122.82 129.049 123.274 129.38C123.729 129.669 124.246 129.814 124.824 129.814C125.775 129.814 126.85 129.421 128.048 128.636C129.247 127.809 130.404 126.776 131.52 125.536C132.636 124.296 133.546 122.994 134.248 121.63C134.992 120.225 135.364 118.943 135.364 117.786C135.364 116.711 135.178 115.988 134.806 115.616C134.434 115.244 134.021 115.058 133.566 115.058ZM134.682 121.444C134.889 121.444 134.972 121.527 134.93 121.692C134.93 121.816 134.827 121.878 134.62 121.878C134.455 121.878 134.207 122.105 133.876 122.56C133.587 122.973 133.318 123.407 133.07 123.862C132.822 124.317 132.698 124.565 132.698 124.606C132.698 125.557 133.05 126.032 133.752 126.032C134.414 126.032 135.158 125.722 135.984 125.102C136.852 124.482 137.679 123.779 138.464 122.994C139.291 122.167 139.952 121.444 140.448 120.824L140.944 121.258C140.407 121.878 139.725 122.622 138.898 123.49C138.072 124.317 137.204 125.061 136.294 125.722C135.385 126.342 134.538 126.652 133.752 126.652C133.091 126.652 132.636 126.507 132.388 126.218C132.14 125.929 132.016 125.412 132.016 124.668C132.016 123.676 132.347 122.891 133.008 122.312C133.711 121.733 134.269 121.444 134.682 121.444ZM157.061 114.314C157.474 114.355 158.011 114.417 158.673 114.5C159.375 114.541 160.057 114.5 160.719 114.376C159.189 116.029 157.66 117.662 156.131 119.274C154.643 120.845 153.279 122.333 152.039 123.738C150.799 125.102 149.786 126.259 149.001 127.21C148.257 128.161 147.885 128.822 147.885 129.194C147.885 129.483 147.947 129.669 148.071 129.752C148.236 129.835 148.443 129.876 148.691 129.876C149.352 129.876 150.261 129.587 151.419 129.008C152.576 128.429 153.837 127.685 155.201 126.776C156.565 125.825 157.867 124.813 159.107 123.738C160.388 122.622 161.442 121.527 162.269 120.452C163.137 119.377 163.653 118.406 163.819 117.538C163.943 116.794 164.005 116.029 164.005 115.244C164.005 114.913 164.129 114.521 164.377 114.066C164.666 113.611 165.141 113.384 165.803 113.384C166.257 113.384 166.609 113.508 166.857 113.756C167.105 114.004 167.229 114.417 167.229 114.996C167.229 115.988 166.733 117.166 165.741 118.53C164.79 119.853 163.55 121.217 162.021 122.622C160.491 124.027 158.859 125.329 157.123 126.528C155.387 127.727 153.733 128.698 152.163 129.442C150.633 130.186 149.373 130.558 148.381 130.558C147.595 130.558 147.099 130.372 146.893 130C146.727 129.669 146.645 129.194 146.645 128.574C146.645 127.623 147.037 126.487 147.823 125.164C148.649 123.8 149.641 122.436 150.799 121.072C151.956 119.667 153.113 118.365 154.271 117.166C155.428 115.967 156.358 115.017 157.061 114.314ZM161.091 122.188L161.587 122.56C161.173 122.932 160.822 123.325 160.533 123.738C160.285 124.11 160.161 124.523 160.161 124.978C160.161 125.639 160.553 125.97 161.339 125.97C162.083 125.97 162.868 125.66 163.695 125.04C164.563 124.42 165.41 123.697 166.237 122.87C167.063 122.043 167.766 121.361 168.345 120.824L168.841 121.196C168.262 121.816 167.539 122.56 166.671 123.428C165.844 124.255 164.955 124.978 164.005 125.598C163.054 126.218 162.165 126.528 161.339 126.528C160.14 126.528 159.541 126.032 159.541 125.04C159.541 124.461 159.644 124.007 159.851 123.676C160.057 123.304 160.471 122.808 161.091 122.188ZM146.645 114.314C146.893 114.397 147.389 114.459 148.133 114.5C148.877 114.541 149.6 114.5 150.303 114.376C149.641 115.12 148.773 116.05 147.699 117.166C146.665 118.241 145.549 119.419 144.351 120.7C143.152 121.94 142.015 123.159 140.941 124.358C139.866 125.515 138.998 126.549 138.337 127.458C137.634 128.367 137.283 129.008 137.283 129.38C137.283 129.711 137.489 129.876 137.903 129.876C138.853 129.876 140.114 129.421 141.685 128.512C143.255 127.561 144.929 126.363 146.707 124.916C148.484 123.428 150.096 121.857 151.543 120.204C151.543 120.245 151.563 120.328 151.605 120.452C151.687 120.535 151.646 120.741 151.481 121.072C151.315 121.361 150.902 121.857 150.241 122.56C149.042 123.841 147.678 125.102 146.149 126.342C144.661 127.541 143.173 128.553 141.685 129.38C140.238 130.165 138.936 130.558 137.779 130.558C136.745 130.558 136.229 130.041 136.229 129.008C136.229 128.057 136.559 126.983 137.221 125.784C137.841 124.544 138.626 123.304 139.577 122.064C140.527 120.783 141.499 119.605 142.491 118.53C143.524 117.414 144.413 116.484 145.157 115.74C145.942 114.955 146.438 114.479 146.645 114.314ZM171.148 130.558C169.206 130.558 167.924 130.124 167.304 129.256C166.684 128.347 166.374 127.396 166.374 126.404C166.374 124.709 166.808 123.139 167.676 121.692C168.544 120.204 169.66 118.881 171.024 117.724C172.388 116.567 173.794 115.678 175.24 115.058C176.728 114.397 178.051 114.066 179.208 114.066C180.035 114.066 180.696 114.19 181.192 114.438C181.688 114.645 181.936 115.099 181.936 115.802C181.936 116.463 181.544 117.166 180.758 117.91C179.973 118.654 178.981 119.377 177.782 120.08C176.584 120.741 175.323 121.361 174 121.94C172.719 122.477 171.541 122.911 170.466 123.242C169.392 123.573 168.606 123.738 168.11 123.738C168.11 123.738 168.11 123.635 168.11 123.428C168.11 123.18 168.11 123.056 168.11 123.056C168.482 123.097 169.123 122.973 170.032 122.684C170.983 122.395 172.037 122.023 173.194 121.568C174.352 121.072 175.468 120.514 176.542 119.894C177.658 119.274 178.568 118.613 179.27 117.91C180.014 117.207 180.386 116.525 180.386 115.864C180.386 115.533 180.283 115.244 180.076 114.996C179.911 114.748 179.601 114.624 179.146 114.624C178.485 114.624 177.679 114.955 176.728 115.616C175.819 116.236 174.889 117.063 173.938 118.096C172.988 119.129 172.099 120.225 171.272 121.382C170.446 122.539 169.764 123.655 169.226 124.73C168.73 125.763 168.482 126.631 168.482 127.334C168.482 128.161 168.73 128.781 169.226 129.194C169.722 129.607 170.446 129.814 171.396 129.814C173.05 129.814 174.6 129.421 176.046 128.636C177.534 127.809 178.878 126.859 180.076 125.784C181.275 124.668 182.288 123.635 183.114 122.684C183.941 121.692 184.499 121.051 184.788 120.762C184.788 120.762 184.85 120.824 184.974 120.948C185.14 121.072 185.222 121.134 185.222 121.134C184.933 121.465 184.375 122.126 183.548 123.118C182.722 124.11 181.688 125.185 180.448 126.342C179.208 127.499 177.803 128.491 176.232 129.318C174.662 130.145 172.967 130.558 171.148 130.558ZM184.643 121.878C184.477 122.043 184.353 122.064 184.271 121.94C184.188 121.775 184.167 121.609 184.209 121.444C184.911 120.741 185.593 119.915 186.255 118.964C186.957 118.013 187.536 117.125 187.991 116.298C188.487 115.471 188.776 114.913 188.859 114.624C188.941 114.624 189.065 114.562 189.231 114.438C189.437 114.314 189.623 114.273 189.789 114.314C189.747 114.603 189.685 114.872 189.603 115.12C189.561 115.368 189.706 115.595 190.037 115.802C190.367 116.009 191.049 116.215 192.083 116.422C193.116 116.629 194.687 116.856 196.795 117.104C197.001 117.145 197.146 117.228 197.229 117.352C197.353 117.435 197.291 117.579 197.043 117.786C196.257 118.406 195.389 119.191 194.439 120.142C193.488 121.093 192.558 122.105 191.649 123.18C190.781 124.213 190.057 125.226 189.479 126.218C188.941 127.21 188.673 128.037 188.673 128.698C188.673 129.442 189.003 129.814 189.665 129.814C190.491 129.814 191.421 129.483 192.455 128.822C193.529 128.161 194.604 127.355 195.679 126.404C196.753 125.412 197.745 124.42 198.655 123.428C199.605 122.395 200.391 121.547 201.011 120.886L201.507 121.258C200.928 121.837 200.184 122.643 199.275 123.676C198.365 124.709 197.332 125.763 196.175 126.838C195.059 127.871 193.86 128.76 192.579 129.504C191.297 130.207 189.975 130.558 188.611 130.558C187.825 130.558 187.123 130.372 186.503 130C185.883 129.669 185.573 129.049 185.573 128.14C185.573 127.272 185.945 126.363 186.689 125.412C187.433 124.461 188.363 123.511 189.479 122.56C190.595 121.568 191.752 120.638 192.951 119.77C194.191 118.861 195.286 118.034 196.237 117.29L196.671 117.848C196.257 117.683 195.534 117.538 194.501 117.414C193.467 117.249 192.393 117.042 191.277 116.794C190.161 116.505 189.189 116.133 188.363 115.678C187.577 115.223 187.185 114.603 187.185 113.818C187.185 113.405 187.35 112.909 187.681 112.33C188.053 111.71 188.549 111.4 189.169 111.4C189.747 111.4 190.14 111.524 190.347 111.772C190.553 111.979 190.657 112.268 190.657 112.64C190.657 112.888 190.45 113.405 190.037 114.19C189.623 114.934 189.107 115.823 188.487 116.856C187.867 117.848 187.205 118.799 186.503 119.708C185.841 120.617 185.221 121.341 184.643 121.878Z" fill="#4B5563"/>
<path d="M63.2 42.92C63.2 46.2267 62.2933 49.1867 60.48 51.8C58.6667 54.36 56.1867 56.4933 53.04 58.2C55.0667 59.5867 56.6667 61.2933 57.84 63.32C59.0667 65.2933 59.68 67.48 59.68 69.88C59.68 72.76 58.8 75.6133 57.04 78.44C55.3333 81.2133 53.04 83.6933 50.16 85.88C47.28 88.0133 44 89.7467 40.32 91.08C36.64 92.4133 32.88 93.08 29.04 93.08C24.88 93.08 21.2267 92.28 18.08 90.68C14.9867 89.1333 12.56 86.92 10.8 84.04C11.3333 82.44 12.0267 80.4667 12.88 78.12C13.7867 75.72 14.7733 73.2133 15.84 70.6C16.9067 67.9333 17.9733 65.2933 19.04 62.68C20.16 60.0667 21.2 57.72 22.16 55.64C24.1867 51.1067 26 47.3467 27.6 44.36C29.2 41.3733 30.6667 39 32 37.24C29.0667 38.1467 26.4 39.1867 24 40.36C21.6 41.48 19.84 42.5733 18.72 43.64C18.24 43.32 17.7333 42.84 17.2 42.2C16.72 41.56 16.24 40.8667 15.76 40.12C15.3333 39.32 14.96 38.52 14.64 37.72C14.3733 36.92 14.2133 36.2 14.16 35.56C15.5467 34.6 17.3333 33.6933 19.52 32.84C21.76 31.9333 24.1867 31.16 26.8 30.52C29.4133 29.88 32.08 29.3733 34.8 29C37.5733 28.6267 40.2133 28.44 42.72 28.44C49.12 28.44 54.1333 29.72 57.76 32.28C61.3867 34.84 63.2 38.3867 63.2 42.92ZM32.72 62.04C31.7067 61.56 30.7733 60.84 29.92 59.88C28.6933 62.6 27.52 65.2667 26.4 67.88C25.3333 70.4933 24.3733 72.92 23.52 75.16C22.6667 77.4 21.9733 79.3467 21.44 81C20.9067 82.6533 20.6133 83.8533 20.56 84.6C21.3067 85.0267 22.1867 85.3467 23.2 85.56C24.2667 85.7733 25.5733 85.88 27.12 85.88C30.7467 85.88 34.2133 85.3733 37.52 84.36C40.8267 83.3467 43.7333 81.9867 46.24 80.28C48.7467 78.52 50.7467 76.52 52.24 74.28C53.7333 72.04 54.48 69.6933 54.48 67.24C54.48 63.72 52.96 61.1867 49.92 59.64C45.76 61.3467 41.0667 62.2 35.84 62.2C35.0933 62.2 34.5067 62.2 34.08 62.2C33.7067 62.2 33.2533 62.1467 32.72 62.04ZM48.24 34.28C47.12 34.28 45.92 34.36 44.64 34.52C43.4133 34.6267 42.1067 34.8133 40.72 35.08C40.9333 35.2933 41.0933 35.5333 41.2 35.8C41.36 36.0133 41.4933 36.2533 41.6 36.52C41.12 37.16 40.5333 38.0933 39.84 39.32C39.1467 40.5467 38.3733 41.9867 37.52 43.64C36.6667 45.24 35.76 47.0267 34.8 49C33.8933 50.9733 32.96 53 32 55.08C32.9067 54.8667 34 54.7067 35.28 54.6C36.6133 54.44 37.92 54.36 39.2 54.36C39.8933 54.36 40.56 54.3867 41.2 54.44C41.8933 54.4933 42.56 54.5733 43.2 54.68C45.76 54.2533 48.0533 53.64 50.08 52.84C52.16 51.9867 53.9467 51.0267 55.44 49.96C56.9333 48.84 58.08 47.6133 58.88 46.28C59.68 44.9467 60.08 43.5333 60.08 42.04C60.08 39.48 59.0667 37.56 57.04 36.28C55.0133 34.9467 52.08 34.28 48.24 34.28ZM93.5094 53.88C93.296 57.1867 92.7094 60.04 91.7494 62.44C90.7894 64.7867 89.4027 66.8667 87.5894 68.68C85.8294 70.44 83.6694 72.04 81.1094 73.48C78.5494 74.92 75.5627 76.3067 72.1494 77.64C72.1494 77.96 72.1227 78.3067 72.0694 78.68C72.0694 79 72.0694 79.3467 72.0694 79.72C72.0694 80.4133 72.1227 81.1333 72.2294 81.88C72.336 82.6267 72.5227 83.32 72.7894 83.96C73.056 84.6 73.4294 85.1333 73.9094 85.56C74.3894 85.9333 75.0027 86.12 75.7494 86.12C77.1894 86.12 78.6027 85.8 79.9894 85.16C81.376 84.52 82.6827 83.7467 83.9094 82.84C85.1894 81.88 86.3627 80.8667 87.4294 79.8C88.5494 78.68 89.536 77.6667 90.3894 76.76C90.9227 77.24 91.376 77.6933 91.7494 78.12C89.3494 81.32 86.7094 83.9867 83.8294 86.12C81.0027 88.2 78.3094 89.5333 75.7494 90.12C72.0694 89.6933 69.1894 88.36 67.1094 86.12C65.0827 83.8267 64.0694 81.08 64.0694 77.88C64.0694 75.6933 64.3627 73.48 64.9494 71.24C65.5894 68.9467 66.4427 66.76 67.5094 64.68C68.6294 62.5467 69.9094 60.5467 71.3494 58.68C72.8427 56.8133 74.416 55.1867 76.0694 53.8C77.776 52.4133 79.5094 51.32 81.2694 50.52C83.0827 49.72 84.8694 49.32 86.6294 49.32C89.0827 49.64 91.376 51.16 93.5094 53.88ZM87.9894 56.52C86.5494 56.7333 85.056 57.32 83.5094 58.28C81.9627 59.24 80.496 60.52 79.1094 62.12C77.776 63.72 76.5494 65.5867 75.4294 67.72C74.3094 69.8533 73.4294 72.1467 72.7894 74.6C77.056 72.4667 80.6027 69.8533 83.4294 66.76C86.256 63.6133 87.776 60.2 87.9894 56.52ZM124.813 54.68C125.346 54.68 125.96 54.7867 126.653 55C127.4 55.16 128.066 55.4 128.653 55.72C129.24 55.9867 129.72 56.28 130.093 56.6C130.52 56.92 130.733 57.2133 130.733 57.48C129.666 59.72 128.68 61.9867 127.773 64.28C126.866 66.52 126.093 68.68 125.453 70.76C124.813 72.84 124.306 74.7867 123.933 76.6C123.613 78.4133 123.453 79.9867 123.453 81.32C123.453 82.8133 123.613 84.0667 123.933 85.08C124.253 86.04 124.786 86.7333 125.533 87.16C124.893 87.5867 124.066 87.9333 123.053 88.2C122.04 88.4667 121.133 88.6 120.333 88.6C117.453 88.6 116.013 86.6267 116.013 82.68C116.013 79.64 117.026 75.48 119.053 70.2C117.986 72.6533 116.76 74.9733 115.373 77.16C113.986 79.2933 112.573 81.1867 111.133 82.84C109.693 84.4933 108.226 85.8533 106.733 86.92C105.293 87.9333 103.96 88.5467 102.733 88.76C100.76 88.6533 99.1598 87.72 97.9331 85.96C96.7065 84.1467 96.0931 81.8533 96.0931 79.08C96.0931 76.0933 96.7331 72.9467 98.0131 69.64C99.2931 66.3333 100.92 63.2667 102.893 60.44C104.92 57.6133 107.106 55.2667 109.453 53.4C111.8 51.48 114.066 50.4667 116.253 50.36C116.786 50.52 117.373 50.84 118.013 51.32C118.706 51.8 119.346 52.36 119.933 53C120.573 53.64 121.106 54.3067 121.533 55C121.96 55.64 122.2 56.2 122.253 56.68C120.12 57 117.906 58.04 115.613 59.8C113.373 61.56 111.32 63.6933 109.453 66.2C107.64 68.6533 106.146 71.2933 104.973 74.12C103.8 76.9467 103.213 79.5867 103.213 82.04C103.213 83.0533 103.586 83.6933 104.333 83.96C105.88 83.64 107.666 82.3333 109.693 80.04C111.72 77.6933 114.173 74.0933 117.053 69.24C117.586 68.28 118.173 67.2133 118.813 66.04C119.506 64.8667 120.2 63.64 120.893 62.36C121.586 61.08 122.253 59.8 122.893 58.52C123.586 57.1867 124.226 55.9067 124.813 54.68ZM156.239 85.24C155.225 84.3867 154.532 83.32 154.159 82.04C153.839 80.76 153.679 79.6667 153.679 78.76C153.679 77.64 153.812 76.68 154.079 75.88C153.865 75.88 153.385 76.3067 152.639 77.16C151.892 78.0133 151.065 79.0267 150.159 80.2C149.305 81.3733 148.452 82.52 147.599 83.64C146.745 84.76 146.105 85.5867 145.679 86.12C144.985 86.8667 144.319 87.4533 143.679 87.88C143.092 88.3067 142.612 88.5467 142.239 88.6C141.385 88.5467 140.479 88.36 139.519 88.04C138.612 87.7733 137.732 87.3733 136.879 86.84C136.079 86.3067 135.359 85.6667 134.719 84.92C134.132 84.1733 133.732 83.32 133.519 82.36C133.519 80.8667 133.545 79.64 133.599 78.68C133.705 77.72 133.892 76.68 134.159 75.56C134.639 73.5333 135.332 71.24 136.239 68.68C137.199 66.12 138.292 63.6133 139.519 61.16C140.745 58.6533 142.105 56.3333 143.599 54.2C145.145 52.0133 146.772 50.3067 148.479 49.08C148.959 49.08 149.519 49.1333 150.159 49.24C150.799 49.2933 151.439 49.4267 152.079 49.64C152.772 49.8533 153.412 50.12 153.999 50.44C154.639 50.7067 155.172 51.08 155.599 51.56C155.119 52.0933 153.892 53.88 151.919 56.92C149.999 59.96 147.839 64.3333 145.439 70.04C145.172 70.6267 144.852 71.48 144.479 72.6C144.105 73.72 143.732 74.8933 143.359 76.12C142.985 77.3467 142.665 78.5467 142.399 79.72C142.185 80.8933 142.079 81.8267 142.079 82.52C142.079 82.9467 142.132 83.2667 142.239 83.48C142.399 83.6933 142.532 83.8533 142.639 83.96C143.439 83.64 144.452 82.76 145.679 81.32C146.905 79.88 148.612 77.6667 150.799 74.68C151.332 73.9333 151.945 73.08 152.639 72.12C153.385 71.16 154.132 70.1467 154.879 69.08C155.625 67.96 156.319 66.8133 156.959 65.64C157.652 64.4667 158.212 63.2933 158.639 62.12C158.852 61.48 159.119 60.7333 159.439 59.88C159.812 58.9733 160.239 58.04 160.719 57.08C161.252 56.12 161.839 55.16 162.479 54.2C163.172 53.1867 163.972 52.2533 164.879 51.4C165.572 51.4 166.319 51.48 167.119 51.64C167.919 51.8 168.665 52.0133 169.359 52.28C170.105 52.4933 170.745 52.76 171.279 53.08C171.812 53.3467 172.212 53.64 172.479 53.96C171.519 56.3067 170.452 58.6267 169.279 60.92C168.105 63.2133 167.012 65.48 165.999 67.72C164.985 69.9067 164.132 72.0933 163.439 74.28C162.745 76.4667 162.399 78.6 162.399 80.68C162.399 81.8 162.479 82.7867 162.639 83.64C162.852 84.44 163.065 85.1333 163.279 85.72C163.492 86.2533 163.679 86.7067 163.839 87.08C164.052 87.4533 164.159 87.7733 164.159 88.04C164.159 88.0933 164.105 88.1733 163.999 88.28C163.945 88.3333 163.892 88.36 163.839 88.36C163.465 88.36 162.985 88.28 162.399 88.12C161.812 87.96 161.145 87.72 160.399 87.4C159.705 87.1333 158.985 86.8133 158.239 86.44C157.545 86.0667 156.879 85.6667 156.239 85.24ZM178.418 56.36C178.151 56.04 177.911 55.3733 177.697 54.36C177.484 53.2933 177.378 52.3867 177.378 51.64C178.764 51.7467 180.098 51.8533 181.378 51.96C182.658 52.0133 183.831 52.0667 184.898 52.12C185.698 50.52 186.551 48.9467 187.458 47.4C188.418 45.8 189.324 44.36 190.178 43.08C191.084 41.7467 191.911 40.6267 192.658 39.72C193.458 38.8133 194.071 38.2267 194.498 37.96C195.031 37.96 195.698 38.0667 196.498 38.28C197.351 38.44 198.204 38.68 199.058 39C199.911 39.2667 200.684 39.56 201.378 39.88C202.071 40.2 202.551 40.52 202.818 40.84C201.218 42.8667 199.831 44.76 198.658 46.52C197.538 48.2267 196.311 50.2 194.978 52.44C196.044 52.44 197.111 52.4133 198.178 52.36C199.298 52.3067 200.418 52.2267 201.538 52.12C201.804 52.3867 202.018 52.7333 202.178 53.16C202.338 53.5333 202.418 53.9333 202.418 54.36C199.804 55.32 196.631 55.8533 192.898 55.96C191.564 58.52 190.364 61.08 189.298 63.64C188.284 66.1467 187.404 68.5733 186.658 70.92C185.964 73.2667 185.404 75.48 184.978 77.56C184.604 79.64 184.418 81.5067 184.418 83.16C184.418 85.5067 185.298 86.8133 187.057 87.08C188.657 86.8667 190.178 86.4667 191.618 85.88C193.058 85.2933 194.338 84.5467 195.458 83.64C195.778 84.12 195.964 84.52 196.018 84.84C195.698 85.32 195.138 85.88 194.338 86.52C193.591 87.16 192.764 87.7733 191.858 88.36C190.951 89 190.071 89.5333 189.218 89.96C188.364 90.3867 187.724 90.6267 187.298 90.68C185.964 90.6267 184.631 90.3333 183.298 89.8C181.964 89.2667 180.738 88.6 179.618 87.8C178.551 87 177.671 86.12 176.978 85.16C176.284 84.1467 175.938 83.16 175.938 82.2C175.938 80.92 176.098 79.32 176.418 77.4C176.791 75.4267 177.298 73.2933 177.938 71C178.578 68.7067 179.324 66.3067 180.178 63.8C181.031 61.2933 181.964 58.8133 182.978 56.36H178.418ZM201.903 81.64C201.903 81.16 201.929 80.5733 201.983 79.88C202.089 79.1333 202.249 78.1733 202.463 77C202.676 75.7733 202.943 74.3067 203.263 72.6C203.636 70.8933 204.089 68.84 204.622 66.44C204.729 65.9067 204.969 65.0533 205.343 63.88C205.716 62.7067 206.196 61.48 206.783 60.2C207.423 58.8667 208.169 57.5867 209.023 56.36C209.929 55.1333 210.996 54.2267 212.223 53.64C213.129 53.8533 214.329 54.4133 215.823 55.32C217.316 56.1733 218.596 57.3733 219.663 58.92C218.436 60.3067 217.396 61.6933 216.543 63.08C215.743 64.4667 214.996 65.9067 214.303 67.4C213.663 68.8933 213.049 70.44 212.463 72.04C211.929 73.64 211.316 75.32 210.623 77.08C210.036 78.5733 209.503 80.12 209.023 81.72C208.543 83.2667 208.276 84.6267 208.223 85.8C208.223 86.76 208.196 87.4267 208.143 87.8C208.143 88.2267 208.009 88.44 207.743 88.44C207.529 88.44 207.103 88.3067 206.463 88.04C205.823 87.7733 205.156 87.3733 204.463 86.84C203.823 86.2533 203.236 85.5333 202.703 84.68C202.169 83.8267 201.903 82.8133 201.903 81.64ZM217.183 46.92C217.183 46.6 217.263 46.12 217.423 45.48C217.156 45.2133 216.916 44.8133 216.703 44.28C216.543 43.7467 216.463 43.2667 216.463 42.84C216.463 42.36 216.516 41.72 216.623 40.92C216.783 40.0667 216.969 39.16 217.183 38.2C217.396 37.24 217.663 36.2533 217.983 35.24C218.303 34.1733 218.623 33.2133 218.943 32.36C219.583 32.36 220.356 32.5467 221.263 32.92C222.223 33.24 223.183 33.6933 224.143 34.28C225.103 34.8133 225.983 35.4267 226.783 36.12C227.583 36.76 228.196 37.3733 228.623 37.96C228.036 38.5467 227.263 39.3733 226.303 40.44C225.343 41.4533 224.409 42.5467 223.503 43.72C222.596 44.84 221.769 45.9067 221.023 46.92C220.276 47.9333 219.796 48.6533 219.583 49.08C218.943 48.9733 218.383 48.7067 217.903 48.28C217.423 47.8 217.183 47.3467 217.183 46.92ZM224.582 110.12C223.249 109.587 222.449 108.573 222.182 107.08C221.969 105.64 221.062 104.467 219.462 103.56C219.889 100.84 220.369 98.0933 220.902 95.32C221.435 92.5467 222.102 89.4 222.902 85.88C223.755 82.3067 224.795 78.1733 226.022 73.48C227.302 68.7333 228.902 63 230.822 56.28C229.062 56.28 227.675 56.3067 226.662 56.36C225.649 56.4133 224.662 56.52 223.702 56.68C223.489 56.4667 223.302 56.1733 223.142 55.8C223.035 55.4267 222.982 55.08 222.982 54.76C223.515 54.5467 224.609 54.28 226.262 53.96C227.915 53.5867 229.729 53.2667 231.702 53C232.982 48.9467 234.449 45.32 236.102 42.12C237.755 38.8667 239.542 36.0933 241.462 33.8C243.382 31.5067 245.409 29.7467 247.542 28.52C249.675 27.2933 251.835 26.68 254.022 26.68C254.662 26.68 255.275 26.7333 255.862 26.84C256.449 26.8933 256.902 26.92 257.222 26.92C257.702 26.5467 258.342 26.2267 259.142 25.96C259.942 25.64 260.635 25.48 261.222 25.48C261.862 25.48 262.689 25.8267 263.702 26.52C263.275 27.2667 262.822 28.28 262.342 29.56C261.862 30.84 261.462 32.0933 261.142 33.32C259.809 37.2667 258.395 39.8267 256.902 41C256.315 41 255.995 40.2267 255.942 38.68C255.889 37.56 255.729 36.4667 255.462 35.4C255.249 34.92 255.089 34.4933 254.982 34.12C254.929 33.7467 254.902 33.2667 254.902 32.68C254.902 32.36 254.929 31.9867 254.982 31.56C255.035 31.08 255.142 30.3067 255.302 29.24C254.395 29.24 253.382 29.8 252.262 30.92C251.195 32.04 250.049 33.64 248.822 35.72C247.649 37.7467 246.449 40.1733 245.222 43C243.995 45.8267 242.822 48.9467 241.702 52.36L248.422 52.12C248.689 52.3867 248.902 53 249.062 53.96C249.275 54.8667 249.409 55.8267 249.462 56.84L240.662 56.36C238.635 62.3867 236.742 68.1467 234.982 73.64C233.222 79.1333 231.649 84.2 230.262 88.84C228.875 93.48 227.675 97.6133 226.662 101.24C225.702 104.92 225.009 107.88 224.582 110.12ZM269.286 85.24C268.272 84.3867 267.579 83.32 267.206 82.04C266.886 80.76 266.726 79.6667 266.726 78.76C266.726 77.64 266.859 76.68 267.126 75.88C266.912 75.88 266.432 76.3067 265.686 77.16C264.939 78.0133 264.112 79.0267 263.206 80.2C262.352 81.3733 261.499 82.52 260.646 83.64C259.792 84.76 259.152 85.5867 258.726 86.12C258.032 86.8667 257.366 87.4533 256.726 87.88C256.139 88.3067 255.659 88.5467 255.286 88.6C254.432 88.5467 253.526 88.36 252.566 88.04C251.659 87.7733 250.779 87.3733 249.926 86.84C249.126 86.3067 248.406 85.6667 247.766 84.92C247.179 84.1733 246.779 83.32 246.566 82.36C246.566 80.8667 246.592 79.64 246.646 78.68C246.752 77.72 246.939 76.68 247.206 75.56C247.686 73.5333 248.379 71.24 249.286 68.68C250.246 66.12 251.339 63.6133 252.566 61.16C253.792 58.6533 255.152 56.3333 256.646 54.2C258.192 52.0133 259.819 50.3067 261.526 49.08C262.006 49.08 262.566 49.1333 263.206 49.24C263.846 49.2933 264.486 49.4267 265.126 49.64C265.819 49.8533 266.459 50.12 267.046 50.44C267.686 50.7067 268.219 51.08 268.646 51.56C268.166 52.0933 266.939 53.88 264.966 56.92C263.046 59.96 260.886 64.3333 258.486 70.04C258.219 70.6267 257.899 71.48 257.526 72.6C257.152 73.72 256.779 74.8933 256.406 76.12C256.032 77.3467 255.712 78.5467 255.446 79.72C255.232 80.8933 255.126 81.8267 255.126 82.52C255.126 82.9467 255.179 83.2667 255.286 83.48C255.446 83.6933 255.579 83.8533 255.686 83.96C256.486 83.64 257.499 82.76 258.726 81.32C259.952 79.88 261.659 77.6667 263.846 74.68C264.379 73.9333 264.992 73.08 265.686 72.12C266.432 71.16 267.179 70.1467 267.926 69.08C268.672 67.96 269.366 66.8133 270.006 65.64C270.699 64.4667 271.259 63.2933 271.686 62.12C271.899 61.48 272.166 60.7333 272.486 59.88C272.859 58.9733 273.286 58.04 273.766 57.08C274.299 56.12 274.886 55.16 275.526 54.2C276.219 53.1867 277.019 52.2533 277.926 51.4C278.619 51.4 279.366 51.48 280.166 51.64C280.966 51.8 281.712 52.0133 282.406 52.28C283.152 52.4933 283.792 52.76 284.326 53.08C284.859 53.3467 285.259 53.64 285.526 53.96C284.566 56.3067 283.499 58.6267 282.326 60.92C281.152 63.2133 280.059 65.48 279.046 67.72C278.032 69.9067 277.179 72.0933 276.486 74.28C275.792 76.4667 275.446 78.6 275.446 80.68C275.446 81.8 275.526 82.7867 275.686 83.64C275.899 84.44 276.112 85.1333 276.326 85.72C276.539 86.2533 276.726 86.7067 276.886 87.08C277.099 87.4533 277.206 87.7733 277.206 88.04C277.206 88.0933 277.152 88.1733 277.046 88.28C276.992 88.3333 276.939 88.36 276.886 88.36C276.512 88.36 276.032 88.28 275.446 88.12C274.859 87.96 274.192 87.72 273.446 87.4C272.752 87.1333 272.032 86.8133 271.286 86.44C270.592 86.0667 269.926 85.6667 269.286 85.24ZM286.977 81.88C286.977 79.5333 287.537 76.2533 288.657 72.04C289.777 67.7733 291.35 62.8133 293.377 57.16C296.684 48.1467 299.777 40.6533 302.657 34.68C305.59 28.6533 308.444 23.96 311.217 20.6C311.857 20.7067 312.63 20.9733 313.537 21.4C314.497 21.8267 315.43 22.3067 316.337 22.84C317.244 23.32 318.044 23.8267 318.737 24.36C319.484 24.8933 319.964 25.32 320.177 25.64C316.017 30.5467 312.364 35.8267 309.217 41.48C306.07 47.1333 303.19 53.6133 300.577 60.92C298.337 67.2133 296.63 72.8933 295.457 77.96C294.284 82.9733 293.697 87.16 293.697 90.52C293.697 91.4267 293.697 91.9867 293.697 92.2C293.697 92.4133 293.724 92.6267 293.777 92.84C293.03 92.7333 292.39 92.5467 291.857 92.28C291.324 92.0133 290.977 91.6933 290.817 91.32C290.71 91.0533 290.417 90.6533 289.937 90.12C289.457 89.64 289.03 89.2667 288.657 89C288.177 88.68 287.777 87.8533 287.457 86.52C287.137 85.1333 286.977 83.5867 286.977 81.88Z" fill="#4B5563"/>
<path d="M134.912 149.256C134.912 150.68 134.456 151.704 133.544 152.328C132.648 152.952 131.368 153.264 129.704 153.264C128.536 153.264 127.192 153.096 125.672 152.76C125.704 152.44 125.776 151.984 125.888 151.392C126.016 150.784 126.12 150.32 126.2 150C126.776 150.096 127.416 150.176 128.12 150.24C128.824 150.288 129.424 150.312 129.92 150.312C130.352 150.312 130.616 150.288 130.712 150.24C130.728 150.224 130.744 150.184 130.76 150.12C130.792 150.04 130.808 149.96 130.808 149.88C130.808 149.56 130.608 149.344 130.208 149.232C130.08 149.2 129.592 149.064 128.744 148.824C127.896 148.584 127.2 148.152 126.656 147.528C126.128 146.888 125.864 146.096 125.864 145.152C125.864 144.656 125.976 144.104 126.2 143.496C126.424 142.888 126.664 142.504 126.92 142.344C127.112 142.216 127.576 142.088 128.312 141.96C129.048 141.816 129.728 141.744 130.352 141.744C131.68 141.744 133.016 141.84 134.36 142.032C134.36 142.32 134.32 142.808 134.24 143.496C134.16 144.168 134.088 144.592 134.024 144.768C132.664 144.592 131.568 144.504 130.736 144.504C130.304 144.504 130.024 144.528 129.896 144.576C129.864 144.592 129.832 144.64 129.8 144.72C129.768 144.784 129.752 144.872 129.752 144.984C129.752 145.208 129.824 145.368 129.968 145.464C130.112 145.576 130.488 145.712 131.096 145.872C131.816 146.08 132.432 146.296 132.944 146.52C133.472 146.744 133.928 147.08 134.312 147.528C134.712 147.976 134.912 148.552 134.912 149.256ZM146.953 142.656C147.097 142.832 147.201 143.272 147.265 143.976C147.345 144.68 147.385 145.752 147.385 147.192V153H143.281V147.24C143.281 147.176 143.281 146.864 143.281 146.304C143.281 145.728 143.241 145.376 143.161 145.248C143.113 145.184 142.993 145.136 142.801 145.104C142.625 145.072 142.417 145.056 142.177 145.056L141.769 145.08C141.321 145.096 140.857 145.2 140.377 145.392V153H136.273V138.6L140.377 138.432V141.24C140.377 142.392 140.337 143.16 140.257 143.544L140.281 143.568C141.369 142.336 142.673 141.72 144.193 141.72C144.769 141.72 145.305 141.8 145.801 141.96C146.313 142.12 146.697 142.352 146.953 142.656ZM154.609 153.312C152.689 153.312 151.249 152.864 150.289 151.968C149.345 151.056 148.873 149.624 148.873 147.672C148.873 146.6 148.969 145.664 149.161 144.864C149.369 144.048 149.617 143.48 149.905 143.16C150.273 142.744 150.945 142.4 151.921 142.128C152.913 141.856 153.841 141.72 154.705 141.72C156.769 141.72 158.241 142.16 159.121 143.04C160.001 143.92 160.441 145.328 160.441 147.264C160.441 149.344 159.969 150.872 159.025 151.848C158.081 152.824 156.609 153.312 154.609 153.312ZM154.681 150.504C155.305 150.504 155.713 150.288 155.905 149.856C156.097 149.408 156.193 148.624 156.193 147.504C156.193 146.72 156.153 146.12 156.073 145.704C155.993 145.272 155.841 144.96 155.617 144.768C155.409 144.56 155.081 144.456 154.633 144.456C153.993 144.456 153.625 144.512 153.529 144.624C153.401 144.736 153.297 145.088 153.217 145.68C153.137 146.272 153.097 146.888 153.097 147.528C153.097 148.616 153.201 149.384 153.409 149.832C153.633 150.28 154.057 150.504 154.681 150.504ZM169.591 141.72C170.743 141.72 171.655 142.104 172.327 142.872C173.015 143.624 173.359 144.944 173.359 146.832C173.359 148.24 173.223 149.392 172.951 150.288C172.679 151.168 172.367 151.752 172.015 152.04C171.663 152.328 171.047 152.56 170.167 152.736C169.303 152.912 168.407 153 167.479 153C167.207 153 166.751 152.984 166.111 152.952V156.36L162.007 156.528V141.96H165.367L165.775 143.664C166.191 143.072 166.719 142.6 167.359 142.248C168.015 141.896 168.759 141.72 169.591 141.72ZM168.631 150.072C168.807 149.944 168.935 149.584 169.015 148.992C169.095 148.384 169.135 147.808 169.135 147.264C169.135 146.368 169.023 145.704 168.799 145.272C168.575 144.84 168.127 144.624 167.455 144.624C166.975 144.624 166.527 144.672 166.111 144.768V150.096L166.783 150.168C166.991 150.184 167.287 150.192 167.671 150.192C168.215 150.192 168.535 150.152 168.631 150.072Z" fill="#4B5563"/>
</svg>
